<svg width="1242" height="491" viewBox="0 0 1242 491" fill="none" xmlns="http://www.w3.org/2000/svg">
<g clip-path="url(#clip0_921_72)">
<path d="M1241.29 0.5H0V491H1241.29V0.5Z" fill="#003E51"/>
<path d="M436.08 318.87L190.6 319.11V285.24H436.08V318.87Z" fill="#FFB25F"/>
<path d="M304.87 180.81L257.96 268.3H220.38L304.87 110.73V180.81Z" fill="#FFB25F"/>
<path d="M321.81 180.81L368.72 268.3H406.3L321.81 110.73V180.81Z" fill="#FFB25F"/>
<path d="M629.55 204.56H589.34V319.11H561.11V204.56H521.48V183.62H629.55V204.56Z" fill="#FFB25F"/>
<path d="M691.61 241.78L681.27 241.5C677.08 241.5 673.63 242.34 670.93 244.01C668.22 245.68 666.16 248.04 664.74 251.08V319.1H636.61V218.42H662.81L664.07 233.31C666.52 228.04 669.69 223.93 673.59 220.98C677.49 218.03 681.98 216.56 687.07 216.56C688.49 216.56 689.79 216.67 690.98 216.89C692.17 217.11 693.38 217.37 694.61 217.68L691.61 241.78Z" fill="#FFB25F"/>
<path d="M735.98 194.32H707.76V173.94H735.98V194.32ZM735.98 319.11H707.76V218.42H735.98V319.11Z" fill="#FFB25F"/>
<path d="M853.52 271.56C853.52 286.57 850.04 298.58 843.08 307.57C836.12 316.57 826.07 321.06 812.92 321.06C806.8 321.06 801.47 319.82 796.92 317.34C792.38 314.86 788.53 311.23 785.37 306.45L783.05 319.11H759.17V173.94H787.3V229.12C790.33 225.09 793.95 221.99 798.17 219.81C802.39 217.64 807.24 216.55 812.72 216.55C825.99 216.55 836.11 221.37 843.07 231.02C850.03 240.67 853.51 253.53 853.51 269.59V271.56H853.52ZM825.39 269.61C825.39 259.81 823.89 252.04 820.89 246.3C817.89 240.56 812.79 237.69 805.57 237.69C801.19 237.69 797.48 238.57 794.45 240.34C791.42 242.11 789.04 244.64 787.3 247.92V290.54C789.04 293.58 791.44 295.91 794.5 297.52C797.56 299.13 801.31 299.94 805.76 299.94C813.04 299.94 818.13 297.47 821.03 292.54C823.93 287.61 825.38 280.61 825.38 271.56V269.61H825.39Z" fill="#FFB25F"/>
<path d="M935 304.22C931.78 309.62 927.69 313.77 922.72 316.69C917.76 319.61 911.99 321.06 905.42 321.06C894.4 321.06 885.78 317.46 879.56 310.27C873.34 303.07 870.23 291.91 870.23 276.77V218.42H898.36V276.95C898.36 285.76 899.6 291.79 902.08 295.05C904.56 298.31 908.41 299.94 913.63 299.94C918.14 299.94 922.01 299.24 925.23 297.85C928.45 296.45 931.09 294.39 933.16 291.66V218.42H961.39V319.11H938L935 304.22Z" fill="#FFB25F"/>
</g>
<defs>
<clipPath id="clip0_921_72">
<rect y="0.5" width="1241.29" height="490.5" rx="48" fill="white"/>
</clipPath>
</defs>
</svg>
